<svg viewBox="0 0 228.861 129.861" xmlns="http://www.w3.org/2000/svg" xmlns:xlink="http://www.w3.org/1999/xlink" width="228.861328" height="129.860840" fill="none" customFrame="#000000">
	<defs>
		<g id="pixso_custom_effect_0">
			<effect visibility="visible" effectType="backgroundBlur" saturation="0" stdDeviation="20" />
		</g>
		<filter id="filter_0" width="94.861328" height="94.860840" x="134.000000" y="35.000000" filterUnits="userSpaceOnUse" customEffect="url(#pixso_custom_effect_0)" color-interpolation-filters="sRGB">
			<feFlood flood-opacity="0" result="BackgroundImageFix" />
			<feGaussianBlur stdDeviation="6.66666651" in="BackgroundImage" />
			<feComposite result="effect_backgroundBlur_1" in2="SourceAlpha" operator="in" />
			<feBlend result="shape" in="SourceGraphic" in2="effect_backgroundBlur_1" mode="normal" />
		</filter>
	</defs>
	<g id="Cta">
		<path id="icon" d="M39.5195 0.302806C39.1466 -0.00488093 38.6331 -0.0849351 38.1827 0.0942008L4.41335 13.5866C4.07181 13.7232 3.90687 14.1082 4.04494 14.4463C4.183 14.7844 4.57189 14.9476 4.91343 14.811L37.1732 1.92586L21.1707 20.6087C20.9326 20.8868 20.9674 21.3033 21.2484 21.539C21.5293 21.7747 21.9501 21.7403 22.1882 21.4621L38.4327 2.49544L36.2617 13.283L34.0747 27.7488C34.0447 27.9512 33.9215 28.1285 33.7413 28.2287C33.5684 28.3242 33.3602 28.3337 33.1791 28.2544L24.0864 24.7153L19.723 22.9069C19.3835 22.7659 18.9928 22.9239 18.8502 23.26C18.8357 23.3052 18.8263 23.3519 18.8223 23.3993L18.8063 23.3993L16.6399 31.68L13.5314 20.9314L29.734 8.98495C29.9411 8.85028 30.0557 8.61314 30.0315 8.36903C30.0074 8.12492 29.8485 7.91423 29.6191 7.82188C29.3896 7.72952 29.1272 7.77075 28.9379 7.92893L12.652 19.9314L0.9128 15.2274C0.572121 15.0937 0.186279 15.2571 0.0488355 15.5934C-0.088608 15.9297 0.0739176 16.3127 0.412721 16.4511L12.2146 21.1783L15.3617 32.0542C15.5256 32.616 16.0459 33.002 16.6366 33L16.6519 33C16.9739 32.9943 17.2825 32.8714 17.5187 32.6548C17.542 32.6409 17.5643 32.6255 17.5854 32.6086L24.0304 26.0849L32.6717 29.4768C33.227 29.7103 33.8605 29.6752 34.386 29.3818C34.9275 29.0844 35.2988 28.555 35.3908 27.9488L37.5719 13.5101L39.9723 1.58924C40.0721 1.11062 39.8982 0.616371 39.5195 0.302806ZM18.5089 29.7902L19.9165 24.4196L22.1208 25.3357L22.6889 25.5587L18.5089 29.7902Z" fill="rgb(245.438,231.688,208.008)" fill-rule="nonzero" transform="matrix(-0.791189,0.611571,0.611571,0.791189,31.6475,0)" />
		<path id="mark" d="M39 35.5002C39 35.5002 60.5 26.5002 78.5 38.0002C93 53 78.5 58.5002 90.5 76.5002C94.7608 82.8914 105.473 84.7065 117 84.5316C150 73 154.5 104 185 68" opacity="0.699999988" stroke="rgb(255,255,255)" stroke-dasharray="2 5 " stroke-width="1" />
		<g filter="url(#filter_0)">
			<path id="background" d="M49.7256 15.5995C50.1783 16.3784 51.0959 16.7585 51.9668 16.5279L66.0824 12.7896C67.5657 12.3967 68.9206 13.7516 68.5277 15.2349L64.7894 29.3505C64.5588 30.2214 64.9389 31.139 65.7177 31.5917L78.3424 38.9295C79.669 39.7006 79.669 41.6167 78.3424 42.3878L65.7177 49.7256C64.9389 50.1783 64.5588 51.0959 64.7894 51.9668L68.5277 66.0824C68.9206 67.5657 67.5657 68.9206 66.0824 68.5277L51.9668 64.7894C51.0959 64.5588 50.1783 64.9389 49.7256 65.7177L42.3878 78.3423C41.6167 79.669 39.7006 79.669 38.9295 78.3423L31.5917 65.7177C31.139 64.9389 30.2214 64.5588 29.3505 64.7894L15.2349 68.5277C13.7516 68.9206 12.3967 67.5657 12.7896 66.0824L16.5279 51.9668C16.7585 51.0959 16.3784 50.1783 15.5995 49.7256L2.97494 42.3878C1.64832 41.6167 1.64832 39.7006 2.97494 38.9295L15.5996 31.5917C16.3784 31.139 16.7585 30.2214 16.5279 29.3505L12.7896 15.2349C12.3967 13.7516 13.7516 12.3967 15.2349 12.7896L29.3505 16.5279C30.2214 16.7585 31.139 16.3784 31.5917 15.5995L38.9295 2.97494C39.7006 1.64832 41.6167 1.64832 42.3878 2.97494L49.7256 15.5995Z" fill="rgb(245,155,0)" fill-rule="evenodd" transform="matrix(0.983013,0.183538,-0.183538,0.983013,148.926,35)" />
			<path id="background" d="M51.9668 16.5279C51.0959 16.7585 50.1783 16.3784 49.7256 15.5995L42.3878 2.97494C41.6167 1.64832 39.7006 1.64832 38.9295 2.97494L31.5917 15.5995C31.139 16.3784 30.2214 16.7585 29.3505 16.5279L15.2349 12.7896C13.7516 12.3967 12.3967 13.7516 12.7896 15.2349L16.5279 29.3505C16.7585 30.2214 16.3784 31.139 15.5996 31.5917L2.97494 38.9295C1.64832 39.7006 1.64832 41.6167 2.97494 42.3878L15.5995 49.7256C16.3784 50.1783 16.7585 51.0959 16.5279 51.9668L12.7896 66.0824C12.3967 67.5657 13.7516 68.9206 15.2349 68.5277L29.3505 64.7894C30.2214 64.5588 31.139 64.9389 31.5917 65.7177L38.9295 78.3423C39.7006 79.669 41.6167 79.669 42.3878 78.3423L49.7256 65.7177C50.1783 64.9389 51.0959 64.5588 51.9668 64.7894L66.0824 68.5277C67.5657 68.9206 68.9206 67.5657 68.5277 66.0824L64.7894 51.9668C64.5588 51.0959 64.9389 50.1783 65.7177 49.7256L78.3424 42.3878C79.669 41.6167 79.669 39.7006 78.3424 38.9295L65.7177 31.5917C64.9389 31.139 64.5588 30.2214 64.7894 29.3505L68.5277 15.2349C68.9206 13.7516 67.5657 12.3967 66.0824 12.7896L51.9668 16.5279ZM41.5232 3.47746L48.8611 16.1021C48.949 16.2534 49.0486 16.3951 49.1596 16.5271C49.2601 16.6464 49.37 16.7578 49.4893 16.8612C49.6084 16.9645 49.734 17.0573 49.8661 17.1397C50.0057 17.2268 50.1526 17.3023 50.3067 17.3662C50.4609 17.43 50.6182 17.4805 50.7785 17.5176C50.9302 17.5528 51.0846 17.5759 51.2417 17.5871C51.3992 17.5983 51.5556 17.5973 51.711 17.5839C51.8829 17.5692 52.0535 17.5394 52.2228 17.4945L66.3384 13.7562C66.4618 13.7235 66.583 13.7134 66.7018 13.7257C66.7579 13.7315 66.8135 13.7424 66.8685 13.7582C66.9319 13.7765 66.9923 13.8005 67.0498 13.8302C67.1412 13.8776 67.2251 13.9394 67.3015 14.0158C67.3778 14.0921 67.4397 14.176 67.487 14.2674C67.5168 14.3249 67.5408 14.3853 67.5591 14.4488C67.5749 14.5038 67.5858 14.5594 67.5916 14.6155C67.6039 14.7343 67.5938 14.8555 67.5611 14.9789L63.8228 29.0945C63.7779 29.2638 63.7481 29.4344 63.7334 29.6062C63.72 29.7616 63.719 29.9181 63.7302 30.0755C63.7414 30.2328 63.7646 30.3873 63.7997 30.5391C63.8368 30.6993 63.8873 30.8565 63.9511 31.0106C64.0149 31.1646 64.0903 31.3113 64.1773 31.4508C64.2598 31.583 64.3527 31.7088 64.4561 31.828C64.5596 31.9474 64.671 32.0573 64.7904 32.1578C64.9223 32.2688 65.0639 32.3683 65.2152 32.4562L77.8398 39.7941C77.9503 39.8583 78.0432 39.9368 78.1185 40.0295C78.154 40.0733 78.1856 40.1202 78.2133 40.1704C78.2452 40.2281 78.271 40.2878 78.2906 40.3495C78.3217 40.4476 78.3373 40.5506 78.3373 40.6586C78.3373 40.7666 78.3217 40.8697 78.2906 40.9677C78.271 41.0294 78.2452 41.0892 78.2133 41.1469C78.1856 41.1971 78.154 41.244 78.1184 41.2878C78.0431 41.3806 77.9503 41.459 77.8398 41.5232L65.2152 48.8611C65.0638 48.9491 64.922 49.0487 64.79 49.1598C64.6708 49.2602 64.5595 49.37 64.4561 49.4893C64.3527 49.6085 64.2598 49.7342 64.1774 49.8664C64.0903 50.006 64.0149 50.1527 63.9511 50.3067C63.8873 50.4609 63.8368 50.6182 63.7996 50.7786C63.7645 50.9302 63.7414 51.0846 63.7302 51.2418C63.7189 51.3993 63.72 51.5558 63.7334 51.7112C63.7481 51.883 63.7779 52.0535 63.8228 52.2228L67.5611 66.3384C67.5938 66.4618 67.6039 66.583 67.5916 66.7018C67.5858 66.7579 67.5749 66.8135 67.5591 66.8685C67.5408 66.9319 67.5168 66.9924 67.487 67.0498C67.4397 67.1412 67.3779 67.2251 67.3015 67.3015C67.2251 67.3778 67.1413 67.4397 67.0499 67.487C66.9924 67.5168 66.932 67.5408 66.8685 67.5591C66.8135 67.5749 66.7579 67.5858 66.7018 67.5916C66.583 67.6039 66.4618 67.5938 66.3384 67.5611L52.2228 63.8228C52.0535 63.7779 51.8829 63.7481 51.7109 63.7333C51.5556 63.72 51.3992 63.719 51.2417 63.7302C51.0845 63.7414 50.9299 63.7646 50.7782 63.7997C50.6179 63.8368 50.4608 63.8873 50.3067 63.9511C50.1526 64.015 50.0057 64.0905 49.8661 64.1776C49.734 64.26 49.6084 64.3528 49.4893 64.4561C49.37 64.5595 49.2602 64.6708 49.1598 64.7901C49.0487 64.9221 48.9491 65.0638 48.8611 65.2152L41.5232 77.8398C41.459 77.9503 41.3806 78.0431 41.2878 78.1184C41.244 78.154 41.1971 78.1856 41.1469 78.2133C41.0892 78.2452 41.0294 78.271 40.9677 78.2906C40.8696 78.3217 40.7666 78.3373 40.6586 78.3373C40.5507 78.3373 40.4477 78.3217 40.3496 78.2906C40.2879 78.271 40.2281 78.2452 40.1704 78.2133C40.1202 78.1856 40.0733 78.154 40.0295 78.1184C39.9367 78.0432 39.8583 77.9503 39.7941 77.8398L32.4562 65.2152C32.3683 65.0639 32.2688 64.9223 32.1578 64.7904C32.0573 64.671 31.9474 64.5596 31.828 64.4561C31.7087 64.3527 31.583 64.2598 31.4507 64.1773C31.3112 64.0903 31.1645 64.0149 31.0106 63.9511C30.8565 63.8873 30.6994 63.8368 30.5391 63.7997C30.3874 63.7646 30.2328 63.7414 30.0755 63.7302C29.918 63.7189 29.7615 63.72 29.6061 63.7334C29.4343 63.7481 29.2637 63.7779 29.0945 63.8227L14.9789 67.5611C14.8555 67.5938 14.7343 67.6039 14.6156 67.5916C14.5594 67.5858 14.5038 67.5749 14.4488 67.5591C14.3853 67.5408 14.3249 67.5167 14.2674 67.487C14.176 67.4397 14.0921 67.3778 14.0158 67.3015C13.9394 67.2251 13.8776 67.1412 13.8302 67.0498C13.8005 66.9923 13.7765 66.9319 13.7582 66.8685C13.7424 66.8135 13.7315 66.7579 13.7257 66.7019C13.7133 66.583 13.7235 66.4619 13.7562 66.3384L17.4945 52.2228C17.5394 52.0534 17.5692 51.8828 17.5839 51.7109C17.5973 51.5556 17.5983 51.3992 17.5871 51.2417C17.5759 51.0846 17.5528 50.9302 17.5177 50.7786C17.4805 50.6182 17.43 50.4609 17.3662 50.3067C17.3023 50.1526 17.2268 50.0057 17.1397 49.8661C17.0573 49.734 16.9645 49.6084 16.8612 49.4893C16.7578 49.37 16.6465 49.2602 16.5272 49.1598C16.3952 49.0487 16.2535 48.9491 16.1021 48.8611L3.47746 41.5232C3.36699 41.459 3.27412 41.3805 3.19882 41.2878C3.1633 41.244 3.13169 41.1971 3.10399 41.1469C3.07206 41.0891 3.0463 41.0294 3.0267 40.9677C2.99555 40.8696 2.97997 40.7666 2.97997 40.6586C2.97997 40.5506 2.99556 40.4476 3.02673 40.3495C3.04633 40.2878 3.07208 40.2281 3.10399 40.1704C3.13169 40.1202 3.1633 40.0733 3.19882 40.0295C3.27411 39.9368 3.36699 39.8583 3.47746 39.7941L16.1021 32.4562C16.2535 32.3682 16.3952 32.2687 16.5272 32.1575C16.6465 32.0571 16.7578 31.9473 16.8612 31.828C16.9645 31.7089 17.0573 31.5833 17.1397 31.4512C17.2268 31.3116 17.3023 31.1647 17.3662 31.0106C17.43 30.8564 17.4805 30.6991 17.5176 30.5388C17.5528 30.3871 17.5759 30.2327 17.5871 30.0755C17.5983 29.9181 17.5973 29.7617 17.584 29.6064C17.5692 29.4345 17.5394 29.2638 17.4945 29.0945L13.7562 14.9789C13.7235 14.8554 13.7134 14.7342 13.7257 14.6154C13.7315 14.5593 13.7424 14.5038 13.7582 14.4488C13.7765 14.3853 13.8005 14.3249 13.8303 14.2674C13.8776 14.176 13.9394 14.0922 14.0158 14.0158C14.0922 13.9394 14.1761 13.8776 14.2675 13.8303C14.3249 13.8005 14.3854 13.7765 14.4488 13.7582C14.5038 13.7424 14.5594 13.7315 14.6155 13.7257C14.7343 13.7133 14.8554 13.7235 14.9789 13.7562L29.0945 17.4945C29.2638 17.5394 29.4344 17.5692 29.6062 17.5839C29.7616 17.5973 29.9181 17.5983 30.0755 17.5871C30.2327 17.5759 30.3871 17.5527 30.5388 17.5176C30.6991 17.4805 30.8564 17.43 31.0106 17.3662C31.1647 17.3023 31.3116 17.2268 31.4512 17.1397C31.5833 17.0573 31.7089 16.9645 31.828 16.8612C31.9473 16.7578 32.0572 16.6464 32.1576 16.5271C32.2687 16.3951 32.3683 16.2534 32.4562 16.1021L39.7941 3.47746C39.8583 3.36701 39.9367 3.27415 40.0295 3.19886C40.0733 3.16332 40.1202 3.1317 40.1704 3.10399C40.2281 3.07207 40.2879 3.0463 40.3496 3.02671C40.4476 2.99555 40.5507 2.97997 40.6586 2.97997C40.7666 2.97997 40.8696 2.99555 40.9677 3.0267C41.0294 3.0463 41.0891 3.07206 41.1469 3.10399C41.1971 3.13169 41.244 3.1633 41.2878 3.19882C41.3805 3.27411 41.459 3.36699 41.5232 3.47746Z" fill="rgb(255,255,255)" fill-rule="evenodd" transform="matrix(0.983013,0.183538,-0.183538,0.983013,148.926,35)" />
		</g>
		<path id="30% OFF" d="M167.356 74.7423C167.403 73.809 167.729 73.0903 168.336 72.5863C168.952 72.073 169.759 71.8164 170.758 71.8164C171.439 71.8164 172.023 71.9377 172.508 72.1804C172.993 72.4137 173.357 72.7357 173.6 73.1463C173.852 73.5477 173.978 74.005 173.978 74.5183C173.978 75.1064 173.824 75.6057 173.516 76.0163C173.217 76.4177 172.858 76.6884 172.438 76.8284L172.438 76.8844C172.979 77.0524 173.399 77.351 173.698 77.7803C174.006 78.2097 174.16 78.7604 174.16 79.4324C174.16 79.9924 174.029 80.4917 173.768 80.9304C173.516 81.369 173.138 81.7144 172.634 81.9664C172.139 82.209 171.542 82.3304 170.842 82.3304C169.787 82.3304 168.929 82.0644 168.266 81.5323C167.603 81.0004 167.253 80.2164 167.216 79.1804L169.12 79.1804C169.139 79.6377 169.293 80.0063 169.582 80.2864C169.881 80.557 170.287 80.6924 170.8 80.6924C171.276 80.6924 171.64 80.5617 171.892 80.3004C172.153 80.0297 172.284 79.6843 172.284 79.2644C172.284 78.7044 172.107 78.303 171.752 78.0603C171.397 77.8177 170.847 77.6964 170.1 77.6964L169.694 77.6964L169.694 76.0863L170.1 76.0863C171.425 76.0863 172.088 75.643 172.088 74.7563C172.088 74.355 171.967 74.0424 171.724 73.8184C171.491 73.5944 171.15 73.4824 170.702 73.4824C170.263 73.4824 169.923 73.6037 169.68 73.8464C169.447 74.0797 169.311 74.3783 169.274 74.7423L167.356 74.7423ZM175.709 77.0244C175.709 75.4097 175.998 74.145 176.577 73.2303C177.165 72.3157 178.135 71.8584 179.489 71.8584C180.842 71.8584 181.808 72.3157 182.387 73.2303C182.975 74.145 183.269 75.4097 183.269 77.0244C183.269 78.6484 182.975 79.9223 182.387 80.8464C181.808 81.7704 180.842 82.2324 179.489 82.2324C178.135 82.2324 177.165 81.7704 176.577 80.8464C175.998 79.9223 175.709 78.6484 175.709 77.0244ZM181.337 77.0244C181.337 76.3337 181.29 75.755 181.197 75.2884C181.113 74.8123 180.935 74.425 180.665 74.1264C180.403 73.8277 180.011 73.6784 179.489 73.6784C178.966 73.6784 178.569 73.8277 178.299 74.1264C178.037 74.425 177.86 74.8123 177.767 75.2884C177.683 75.755 177.641 76.3337 177.641 77.0244C177.641 77.7337 177.683 78.331 177.767 78.8164C177.851 79.2924 178.028 79.6797 178.299 79.9783C178.569 80.2677 178.966 80.4124 179.489 80.4124C180.011 80.4124 180.408 80.2677 180.679 79.9783C180.949 79.6797 181.127 79.2924 181.211 78.8164C181.295 78.331 181.337 77.7337 181.337 77.0244ZM184.536 74.5603C184.536 73.851 184.741 73.2957 185.152 72.8943C185.572 72.493 186.108 72.2924 186.762 72.2924C187.415 72.2924 187.947 72.493 188.358 72.8943C188.778 73.2957 188.988 73.851 188.988 74.5603C188.988 75.279 188.778 75.839 188.358 76.2403C187.947 76.6417 187.415 76.8424 186.762 76.8424C186.108 76.8424 185.572 76.6417 185.152 76.2403C184.741 75.839 184.536 75.279 184.536 74.5603ZM193.524 72.4604L188.022 82.2604L186.118 82.2604L191.606 72.4604L193.524 72.4604ZM186.748 73.4684C186.234 73.4684 185.978 73.8324 185.978 74.5603C185.978 75.2977 186.234 75.6664 186.748 75.6664C187 75.6664 187.196 75.5777 187.336 75.4004C187.476 75.2137 187.546 74.9337 187.546 74.5603C187.546 73.8324 187.28 73.4684 186.748 73.4684ZM190.682 80.1463C190.682 79.4277 190.887 78.8724 191.298 78.4803C191.718 78.079 192.254 77.8783 192.908 77.8783C193.561 77.8783 194.088 78.079 194.49 78.4803C194.9 78.8724 195.106 79.4277 195.106 80.1463C195.106 80.865 194.9 81.425 194.49 81.8264C194.088 82.2277 193.561 82.4284 192.908 82.4284C192.245 82.4284 191.708 82.2277 191.298 81.8264C190.887 81.425 190.682 80.865 190.682 80.1463ZM192.894 79.0544C192.362 79.0544 192.096 79.4184 192.096 80.1463C192.096 80.8837 192.362 81.2523 192.894 81.2523C193.416 81.2523 193.678 80.8837 193.678 80.1463C193.678 79.4184 193.416 79.0544 192.894 79.0544Z" fill="rgb(255,255,255)" fill-rule="nonzero" />
		<path id="30% OFF" d="M175.807 94.3304C175.154 94.3304 174.554 94.177 174.007 93.8704C173.46 93.5637 173.027 93.1404 172.707 92.6003C172.387 92.0537 172.227 91.437 172.227 90.7504C172.227 90.0704 172.387 89.4604 172.707 88.9203C173.027 88.3737 173.46 87.947 174.007 87.6404C174.554 87.3337 175.154 87.1804 175.807 87.1804C176.467 87.1804 177.067 87.3337 177.607 87.6404C178.154 87.947 178.584 88.3737 178.897 88.9203C179.217 89.4604 179.377 90.0704 179.377 90.7504C179.377 91.437 179.217 92.0537 178.897 92.6003C178.584 93.1404 178.154 93.5637 177.607 93.8704C177.06 94.177 176.46 94.3304 175.807 94.3304ZM175.807 93.0804C176.227 93.0804 176.597 92.987 176.917 92.8004C177.237 92.607 177.487 92.3337 177.667 91.9803C177.847 91.627 177.937 91.217 177.937 90.7504C177.937 90.2837 177.847 89.877 177.667 89.5303C177.487 89.177 177.237 88.907 176.917 88.7204C176.597 88.5337 176.227 88.4404 175.807 88.4404C175.387 88.4404 175.014 88.5337 174.687 88.7204C174.367 88.907 174.117 89.177 173.937 89.5303C173.757 89.877 173.667 90.2837 173.667 90.7504C173.667 91.217 173.757 91.627 173.937 91.9803C174.117 92.3337 174.367 92.607 174.687 92.8004C175.014 92.987 175.387 93.0804 175.807 93.0804ZM184.729 87.2803L184.729 88.4104L181.819 88.4104L181.819 90.2003L184.049 90.2003L184.049 91.3103L181.819 91.3103L181.819 94.2604L180.419 94.2604L180.419 87.2803L184.729 87.2803ZM190.031 87.2803L190.031 88.4104L187.121 88.4104L187.121 90.2003L189.351 90.2003L189.351 91.3103L187.121 91.3103L187.121 94.2604L185.721 94.2604L185.721 87.2803L190.031 87.2803Z" fill="rgb(255,255,255)" fill-rule="nonzero" />
		<path id="30% OFF" d="M175.807 94.3304C175.154 94.3304 174.554 94.177 174.007 93.8704C173.46 93.5637 173.027 93.1404 172.707 92.6003C172.387 92.0537 172.227 91.437 172.227 90.7504C172.227 90.0704 172.387 89.4604 172.707 88.9203C173.027 88.3737 173.46 87.947 174.007 87.6404C174.554 87.3337 175.154 87.1804 175.807 87.1804C176.467 87.1804 177.067 87.3337 177.607 87.6404C178.154 87.947 178.584 88.3737 178.897 88.9203C179.217 89.4604 179.377 90.0704 179.377 90.7504C179.377 91.437 179.217 92.0537 178.897 92.6003C178.584 93.1404 178.154 93.5637 177.607 93.8704C177.06 94.177 176.46 94.3304 175.807 94.3304ZM175.807 93.0804C176.227 93.0804 176.597 92.987 176.917 92.8004C177.237 92.607 177.487 92.3337 177.667 91.9803C177.847 91.627 177.937 91.217 177.937 90.7504C177.937 90.2837 177.847 89.877 177.667 89.5303C177.487 89.177 177.237 88.907 176.917 88.7204C176.597 88.5337 176.227 88.4404 175.807 88.4404C175.387 88.4404 175.014 88.5337 174.687 88.7204C174.367 88.907 174.117 89.177 173.937 89.5303C173.757 89.877 173.667 90.2837 173.667 90.7504C173.667 91.217 173.757 91.627 173.937 91.9803C174.117 92.3337 174.367 92.607 174.687 92.8004C175.014 92.987 175.387 93.0804 175.807 93.0804ZM184.729 87.2803L184.729 88.4104L181.819 88.4104L181.819 90.2003L184.049 90.2003L184.049 91.3103L181.819 91.3103L181.819 94.2604L180.419 94.2604L180.419 87.2803L184.729 87.2803ZM190.031 87.2803L190.031 88.4104L187.121 88.4104L187.121 90.2003L189.351 90.2003L189.351 91.3103L187.121 91.3103L187.121 94.2604L185.721 94.2604L185.721 87.2803L190.031 87.2803Z" fill="rgb(255,255,255)" fill-rule="nonzero" />
	</g>
</svg>
